<svg width="281" height="215" viewBox="0 0 281 215" fill="none" xmlns="http://www.w3.org/2000/svg">
<g clip-path="url(#clip0_372_1109)">
<path d="M261.989 185.339L262.47 174.531C267.477 171.852 273.062 170.437 278.739 170.409C270.925 176.802 271.902 189.126 266.604 197.724C264.931 200.393 262.68 202.65 260.016 204.33C257.353 206.01 254.346 207.068 251.218 207.426L244.679 211.433C243.782 206.427 243.98 201.286 245.259 196.364C246.538 191.442 248.869 186.857 252.09 182.923C253.918 180.734 256.015 178.784 258.331 177.119C259.897 181.252 261.989 185.339 261.989 185.339Z" fill="#F2F2F2"/>
<path d="M162.829 214.124C159.498 213.886 158.63 214.544 153.591 214.124H144.353L145.554 191.999L160.098 197.831L232.372 199.607L232.33 199.73C232.297 199.824 229.088 209.217 231.596 212.774L231.7 212.921L231.497 212.923L165.197 213.532C164.473 213.538 163.547 214.175 162.829 214.124Z" fill="#F2F2F2"/>
<path d="M166.577 214.413C160.143 213.955 153.481 216.458 147.921 213.632L143.476 213.901L143.463 213.864C143.429 213.761 141.329 197.229 145.574 190.819L145.761 190.537L145.907 192.055L144.507 212.649L147.609 211.614C155.141 215.161 164.099 212.818 172.72 212.786L231.389 212.569C232.618 212.565 233.641 213.405 233.674 214.442L233.677 214.544L170.121 214.539C168.935 214.539 167.754 214.497 166.577 214.413Z" fill="#CCCCCC"/>
<path d="M228.297 204.069L162.274 202.756L162.206 202.731L146.607 196.88L146.902 196.093L162.434 201.919L228.313 203.228L228.297 204.069Z" fill="#E6E6E6"/>
<path d="M227.944 207.607L161.921 206.294L161.854 206.268L146.255 200.418L146.55 199.631L162.082 205.456L227.961 206.766L227.944 207.607Z" fill="#E6E6E6"/>
<path d="M227.592 211.145L161.57 209.831L161.503 209.806L145.903 203.955L146.198 203.168L161.73 208.994L227.609 210.305L227.592 211.145Z" fill="#E6E6E6"/>
<path d="M167.034 199.835C160.912 199.422 154.944 197.736 149.509 194.887L144.933 192.458L145.052 191.257C145.086 191.081 145.183 190.923 145.325 190.815C145.468 190.706 145.645 190.654 145.824 190.668L146.228 190.673L207.8 191.58C211.83 191.63 215.823 192.355 219.614 193.726L233.029 198.6L233.022 198.671C232.91 199.802 231.77 200.676 230.427 200.66L169.776 199.949C168.859 199.938 167.945 199.9 167.034 199.835Z" fill="#E6E6E6"/>
<path d="M232.9 198.86L232.886 198.859L159.05 197.166L158.999 197.142L145.687 190.973L145.822 190.767L146.226 190.772L159.174 196.775L232.325 198.451L232.911 198.465L232.9 198.86Z" fill="#CCCCCC"/>
<path d="M175.499 191.203L174.562 191.19L153.401 190.877L152.398 190.863C157.233 196.014 167.924 197.303 183.594 195.307L175.499 191.203Z" fill="#CCCCCC"/>
<path d="M234.992 67.9986L236.283 71.0036L234.173 81.6753L212.65 78.6808L212.822 65.6676L213.254 62.8176L234.992 67.9986Z" fill="#FFB6B6"/>
<path d="M246.113 206.307H241.365L239.104 187.979H246.113V206.307Z" fill="#FFB6B6"/>
<path d="M231.988 212.511C231.989 213.049 232.203 213.565 232.583 213.946C232.963 214.326 233.479 214.54 234.017 214.541H243.051L244.608 211.324L245.213 214.541H248.618L247.661 203.051L246.113 202.96L240.913 202.651L240.074 202.598V205.853L232.865 210.838C232.594 211.025 232.373 211.275 232.221 211.566C232.068 211.858 231.988 212.182 231.988 212.511Z" fill="#2F2E41"/>
<path d="M202.223 185.296H197.475L194.682 158.312L203.604 157.779L202.223 185.296Z" fill="#FFB6B6"/>
<path d="M188.099 191.499C188.099 192.038 188.313 192.554 188.693 192.934C189.074 193.315 189.589 193.529 190.127 193.53H199.161L200.718 190.313L201.323 193.53H204.728L203.771 182.04L202.39 181.959L197.099 181.639L196.185 181.587V184.842L188.975 189.827C188.704 190.014 188.483 190.264 188.331 190.555C188.178 190.846 188.099 191.17 188.099 191.499Z" fill="#2F2E41"/>
<path d="M248.129 190.502H248.11L247.197 160.7C247.788 159.559 248.088 158.29 248.07 157.005C248.052 155.72 247.717 154.46 247.095 153.336L246.964 153.099L247.303 151.526C247.738 149.506 247.539 147.4 246.731 145.498L245.879 117.698C248.923 97.9585 234.418 85.085 234.418 85.085L235.751 74.7388L212.29 75.2724L212.689 85.085L208.024 101.124C205.569 125.06 189.046 140.105 191.557 162.995C191.562 163.061 191.553 163.127 191.529 163.188C191.274 163.963 191.184 164.784 191.265 165.596C191.347 166.408 191.597 167.194 192 167.904C192.105 168.085 192.177 168.283 192.213 168.489C192.73 172.502 192.797 167.426 193.483 171.403L193.35 171.47C192.869 171.636 192.663 172.302 192.889 172.958C193.116 173.614 193.688 174.011 194.169 173.845L206.71 173.979C207.191 173.813 207.397 173.147 207.171 172.491C206.945 171.836 206.372 171.439 205.891 171.605L205.111 172L206.417 167.726L206.874 167.298C207.093 167.093 207.264 166.841 207.372 166.561C207.48 166.282 207.524 165.981 207.499 165.682C207.475 165.382 207.383 165.093 207.231 164.834C207.079 164.575 206.871 164.354 206.621 164.188L207.922 157.242L207.737 151.99L208.117 146.03L224.574 122.168L231.232 155.129L238.032 190.833C237.874 190.977 237.754 191.158 237.686 191.361C237.618 191.563 237.603 191.78 237.642 191.99C237.705 192.284 237.867 192.546 238.102 192.733C238.337 192.92 238.63 193.019 238.93 193.013H248.162C248.355 193.013 248.546 192.968 248.72 192.882C248.893 192.796 249.044 192.671 249.161 192.517C249.279 192.363 249.359 192.183 249.395 191.993C249.432 191.803 249.424 191.607 249.373 191.42C249.295 191.152 249.131 190.916 248.906 190.75C248.681 190.584 248.408 190.497 248.129 190.502Z" fill="#2F2E41"/>
<path d="M239.918 17.2883C239.919 19.191 239.452 21.0648 238.561 22.7452C237.669 24.4257 236.378 25.8613 234.803 26.9261C233.227 27.9909 231.414 28.6523 229.523 28.8523C227.632 29.0523 225.721 28.7848 223.958 28.0732C222.195 27.3616 220.633 26.2276 219.41 24.771C218.186 23.3143 217.339 21.5794 216.942 19.7185C216.545 17.8577 216.611 15.9278 217.134 14.0984C217.656 12.2689 218.619 10.5957 219.939 9.22573L219.995 9.17C220.088 9.07232 220.181 8.97469 220.278 8.88166L220.28 8.88133L220.281 8.88032L220.282 8.8788L220.283 8.87701C220.416 8.77968 220.539 8.66908 220.65 8.5469C222.218 6.35413 223.996 4.51546 228.302 5.66414C234.502 7.31789 239.918 10.8671 239.918 17.2883Z" fill="#2F2E41"/>
<path d="M176.111 12.312C176.085 12.9339 176.195 13.5541 176.434 14.1287C176.673 14.7034 177.035 15.2186 177.495 15.6381C177.954 16.0576 178.5 16.3711 179.094 16.5566C179.688 16.7422 180.315 16.7952 180.931 16.7119L210.888 41.3147L215.463 33.2665L184.579 11.6134C184.37 10.5864 183.792 9.67154 182.955 9.04225C182.118 8.41296 181.079 8.11294 180.035 8.19905C178.991 8.28517 178.015 8.75142 177.292 9.50947C176.569 10.2675 176.149 11.2647 176.111 12.312Z" fill="#FFB6B6"/>
<path d="M223.537 48.5704C223.537 48.5704 223.527 47.6843 218.765 47.7184C212.854 47.7607 196.574 39.268 197.998 31.2697C197.322 31.5754 196.564 31.6474 195.842 31.4742C195.121 31.301 194.478 30.8926 194.014 30.3132L201.939 22.677C204.426 22.8451 204.451 24.5105 204.238 25.4668L210.608 27.9996L227.197 37.5375L224.268 47.1182L223.537 48.5704Z" fill="white"/>
<path d="M225.44 29.725C230.82 29.725 235.181 25.361 235.181 19.9777C235.181 14.5944 230.82 10.2303 225.44 10.2303C220.061 10.2303 215.7 14.5944 215.7 19.9777C215.7 25.361 220.061 29.725 225.44 29.725Z" fill="#FFB7B7"/>
<path d="M212.053 68.4599C211.515 69.1785 211.241 70.0604 211.275 70.9576C211.31 71.8548 211.652 72.7128 212.244 73.3876C212.249 73.6735 212.292 73.95 212.696 74.9746C212.749 75.0739 212.812 75.1681 212.882 75.2557C212.895 75.2771 212.91 75.2978 212.925 75.3177C213.351 75.8696 213.944 76.269 214.615 76.4567L232.445 81.4368L234.802 82.0944L235.217 82.2088L235.445 78.9872C235.975 78.5475 236.331 77.9323 236.447 77.2531C236.563 76.5739 236.432 75.8755 236.078 75.2843L235.75 74.7411L237.664 69.5894L237.85 69.0795L242.731 55.9311L242.736 55.0542L242.746 54.1488L242.793 47.8295C242.795 45.8379 242.336 43.8728 241.452 42.0885C240.568 40.3042 239.283 38.7491 237.698 37.5453C236.254 36.441 234.589 35.6608 232.816 35.2578L232.778 35.253L230.85 32.6558L223.025 33.4373L222.378 34.7669L221.592 36.3682L215.92 39.747L213.982 44.2553L212.673 47.3053C210.644 48.7636 209.434 50.6365 209.087 52.8668C208.344 57.6039 211.658 62.3457 212.053 62.8889L212.153 68.3266L212.053 68.4599Z" fill="white"/>
<path d="M235.635 22.5331C235.547 22.5192 235.458 22.5006 235.37 22.4866C233.851 22.2169 232.331 21.9519 230.817 21.6776L230.677 18.2415L228.842 21.3195C224.656 22.7098 220.739 21.924 217.054 20.1897C215.839 19.6123 214.66 18.9617 213.523 18.2415C213.149 12.4303 215.497 8.71011 219.865 9.10027C220.025 9.11452 220.139 8.95151 220.279 8.88169L220.281 8.88136L220.282 8.88035L220.283 8.87883L220.284 8.87704C220.52 8.76545 220.762 8.65852 221.004 8.56089C222.895 7.82115 224.958 7.63381 226.951 8.02065C228.945 8.40749 230.788 9.35264 232.266 10.7462C235.24 13.5872 236.578 18.2787 235.635 22.5331Z" fill="#2F2E41"/>
<path d="M235.37 22.4865C235.37 22.4865 232.484 11.7086 220.116 9.22103C220.102 9.21644 220.056 9.19782 219.995 9.16996C219.958 9.14668 219.912 9.12341 219.865 9.1002C220.005 9.02113 220.139 8.95144 220.279 8.88162L220.281 8.88129L220.282 8.88027L220.283 8.87875L220.283 8.87697C220.404 8.76538 220.525 8.65379 220.65 8.54686L221.004 8.56082C221.004 8.56082 233.414 6.59402 235.37 22.4865Z" fill="#FD6584"/>
<path d="M240.127 90.428C239.898 90.6239 239.62 90.753 239.322 90.8012C239.025 90.8493 238.72 90.8147 238.441 90.7011C237.886 90.4654 237.392 90.1044 237 89.6462C235.398 87.9643 234.253 85.8997 233.675 83.6492L234.209 82.698C233.999 81.525 234.197 80.3154 234.769 79.2701C235.34 78.2247 236.252 77.4065 237.353 76.9512C237.979 76.6855 238.673 76.625 239.335 76.7786C239.664 76.8603 239.964 77.0293 240.205 77.2677C240.446 77.5061 240.617 77.8051 240.702 78.1331C240.908 79.1507 240.061 80.0695 239.203 80.6537C237.709 81.6686 235.981 82.2872 234.182 82.4513C236.383 83.6923 238.284 85.4004 239.754 87.4555C240.094 87.8842 240.345 88.3766 240.492 88.9037C240.562 89.1681 240.566 89.4458 240.502 89.7119C240.439 89.978 240.31 90.2241 240.127 90.428Z" fill="#2F2E41"/>
<path d="M117.009 214.887H280.476C280.615 214.887 280.748 214.832 280.846 214.733C280.944 214.635 281 214.502 281 214.363C281 214.224 280.944 214.09 280.846 213.992C280.748 213.894 280.615 213.839 280.476 213.839H117.009C116.87 213.839 116.737 213.894 116.639 213.992C116.541 214.09 116.485 214.224 116.485 214.363C116.485 214.502 116.541 214.635 116.639 214.733C116.737 214.832 116.87 214.887 117.009 214.887Z" fill="#CCCCCC"/>
<path d="M160.423 80.1664V80.4402C159.834 79.7498 159.234 79.0653 158.639 78.3807C158.389 78.0951 158.139 77.8094 157.889 77.5237C156.831 76.3213 155.766 75.1229 154.695 73.9286C153.619 72.7381 152.542 71.5477 151.454 70.3632C151.192 70.0775 150.93 69.7918 150.663 69.5062C150.449 69.2661 150.216 69.0431 149.967 68.8394C149.716 68.6303 149.427 68.4707 149.116 68.3692C148.759 68.2701 148.382 68.266 148.022 68.3574C147.612 68.4526 147.219 68.6014 146.821 68.7264C146.41 68.8633 146.006 68.9942 145.595 69.1252C144.774 69.393 143.96 69.6609 143.139 69.9288C143.129 69.9328 143.118 69.9348 143.108 69.9347C143.097 69.9347 143.086 69.9325 143.077 69.9283C143.067 69.9242 143.058 69.9181 143.05 69.9105C143.043 69.9029 143.037 69.8939 143.033 69.884L143.032 69.8811C143.027 69.8698 143.025 69.8576 143.025 69.8455C143.026 69.8333 143.029 69.8214 143.035 69.8106C143.041 69.7998 143.049 69.7904 143.058 69.783C143.068 69.7757 143.079 69.7705 143.091 69.768C143.294 69.7026 143.502 69.6371 143.71 69.5716C144.537 69.2978 145.357 69.03 146.184 68.7622C146.594 68.6252 147.005 68.4943 147.415 68.3633C147.796 68.2187 148.198 68.1382 148.605 68.1252C149.269 68.173 149.892 68.4657 150.354 68.9466C150.609 69.1847 150.841 69.4347 151.073 69.6907C151.347 69.9883 151.62 70.2859 151.894 70.5835C152.994 71.7858 154.087 72.9921 155.171 74.2024C156.26 75.4166 157.338 76.6329 158.407 77.851C158.484 77.9404 158.561 78.0296 158.639 78.1189C159.24 78.7974 159.828 79.4819 160.423 80.1664Z" fill="white"/>
<path d="M149.874 69.9361C149.65 69.6464 149.35 69.4237 149.008 69.292L148.67 69.3039C151.325 73.4377 154.802 76.9794 158.886 79.7076C155.882 76.4505 152.878 73.1933 149.874 69.9361Z" fill="white"/>
<path d="M205.274 112.896L191.8 40.6969C191.57 39.5067 190.942 38.4302 190.02 37.644C189.098 36.8577 187.936 36.4082 186.725 36.3694C186.616 36.3669 186.507 36.3669 186.398 36.3694L177.219 36.6989L176.231 36.7352L171.65 36.9L170.663 36.9339L167.716 37.0405L108.298 39.1752C108.209 39.1801 108.117 39.1801 108.027 39.1776L94.7124 38.899L89.7851 38.7972L89.6278 38.7948L85.991 38.7173L54.3016 38.0582L45.8998 37.8813L41.757 37.7965L40.7643 37.7747L36.0404 37.6778L35.0501 37.656L30.2173 37.5566L29.227 37.5348L23.9172 37.4233L23.0842 37.4064L18.3483 37.307L17.6001 37.2925H17.4912C16.2338 37.2976 15.0188 37.7474 14.0609 38.5624C13.103 39.3774 12.4638 40.505 12.2564 41.746L0.0701719 116.666C-0.0535782 117.425 -0.0109726 118.202 0.195028 118.943C0.401028 119.683 0.765491 120.371 1.26319 120.957C1.76089 121.542 2.37992 122.013 3.07739 122.336C3.77486 122.658 4.5341 122.826 5.30251 122.825H75.2866C76.3167 122.828 77.3191 123.159 78.1486 123.77L79.4754 124.754C80.3899 125.428 81.4948 125.793 82.6303 125.796C96.1468 122.226 110.358 122.226 123.874 125.796C124.571 125.798 125.261 125.661 125.905 125.394C126.549 125.127 127.133 124.735 127.625 124.24C128.465 123.4 129.586 122.9 130.772 122.838L200.34 119.169C201.094 119.13 201.832 118.929 202.502 118.582C203.173 118.234 203.762 117.747 204.229 117.153C204.696 116.559 205.031 115.871 205.212 115.137C205.392 114.403 205.413 113.639 205.274 112.896Z" fill="#CCCCCC"/>
<path d="M186.21 101.637C186.121 104.084 185.064 106.395 183.273 108.062C181.481 109.73 179.102 110.617 176.657 110.529C172.617 110.386 167.797 110.315 162.564 110.424C145.478 110.79 124.011 113.143 111.099 121.606C109.476 122.673 107.558 123.199 105.619 123.111C105.476 123.102 105.338 123.094 105.195 123.081C103.184 122.898 101.29 122.057 99.8031 120.69C92.6897 114.177 76.3758 106.289 39.0323 105.734C38.8769 105.734 38.7257 105.726 38.5746 105.718C37.365 105.642 36.1824 105.328 35.0942 104.794C34.006 104.26 33.0336 103.517 32.2326 102.607C31.4315 101.697 30.8176 100.637 30.4258 99.4897C30.0341 98.342 29.8722 97.1283 29.9494 95.918L33.6195 37.6283L34.1696 28.8918L35.1354 13.6082C35.2328 12.069 35.9121 10.6246 37.0352 9.56858C38.1584 8.51252 39.6411 7.92396 41.1823 7.92249H41.2201L63.4674 8.05275C72.84 8.47718 80.603 9.67203 86.7562 11.6373C88.858 12.2895 90.9029 13.1132 92.8702 14.0998C95.5573 15.4035 97.9715 17.2076 99.9837 19.4157C101.237 20.8263 102.947 21.7501 104.813 22.0253C105.102 22.0686 105.394 22.0952 105.686 22.1052C107.407 22.1764 109.105 21.6901 110.528 20.7184C125.061 10.9733 154.678 10.2338 171.034 10.654C173.322 10.7074 175.507 11.6109 177.165 13.1887C178.823 14.7664 179.835 16.9053 180.004 19.1888L180.667 27.8833L181.326 36.5526L185.131 86.6562L186.189 100.595C186.215 100.942 186.222 101.29 186.21 101.637Z" fill="#F2F2F2"/>
<path d="M44.5663 28.4337C57.9731 24.1531 72.9302 25.2864 85.6313 31.3168C89.2552 33.0285 92.6778 35.1381 95.836 37.6066C96.7294 38.3083 98.0007 37.0532 97.0977 36.344C85.432 27.2891 70.7742 22.9876 56.0694 24.3037C52.0013 24.668 47.985 25.4755 44.0919 26.7118C43.002 27.0598 43.4679 28.7844 44.5663 28.4337Z" fill="#3F3D56"/>
<path d="M118.34 38.2993C130.805 31.7428 145.731 30.3131 159.284 34.0348C163.148 35.0933 166.882 36.579 170.417 38.4645C171.43 39.0053 172.332 37.4644 171.318 36.9226C158.401 30.0253 142.896 28.4376 128.79 32.2824C124.856 33.3569 121.05 34.8574 117.44 36.7574C116.423 37.2923 117.324 38.834 118.34 38.2993Z" fill="#3F3D56"/>
<path d="M118.34 50.2036C130.805 43.6471 145.731 42.2173 159.284 45.9391C163.148 46.9976 166.882 48.4833 170.417 50.3688C171.43 50.9096 172.332 49.3687 171.318 48.8269C158.401 41.9296 142.896 40.3419 128.791 44.1867C124.856 45.2612 121.05 46.7617 117.44 48.6617C116.423 49.1966 117.324 50.7383 118.34 50.2036Z" fill="#3F3D56"/>
<path d="M171.754 61.4692C171.763 61.316 171.726 61.1634 171.648 61.0314C171.569 60.8994 171.453 60.7941 171.314 60.7291C160.967 55.3069 149.234 53.1077 137.627 54.4146C137.555 54.4204 137.488 54.4321 137.409 54.4379H137.406C137.335 54.4443 137.264 54.455 137.193 54.4699C130.29 55.2649 123.593 57.3307 117.44 60.563C117.306 60.643 117.194 60.7565 117.117 60.8924C117.04 61.0283 117 61.1819 117 61.3381V83.5453C117.002 83.682 117.035 83.8163 117.097 83.9382C117.159 84.0601 117.248 84.1664 117.356 84.2489C117.465 84.3314 117.592 84.3881 117.726 84.4146C117.859 84.4412 117.998 84.4369 118.13 84.402C118.403 84.3233 118.677 84.2476 118.957 84.1747C125.177 82.4898 131.563 81.4902 138 81.1937C138.137 81.1879 138.274 81.1821 138.416 81.1763C143.66 80.9509 148.912 81.1399 154.126 81.7415C154.235 81.7477 154.344 81.7594 154.452 81.7765C154.72 81.8056 154.993 81.8377 155.261 81.8727C155.369 81.8843 155.471 81.896 155.57 81.9134C156.612 82.0446 157.646 82.1932 158.683 82.3535C160.179 82.5924 161.676 82.8585 163.173 83.1519C163.266 83.1694 163.362 83.1927 163.458 83.2102C165.86 83.6881 168.251 84.2417 170.63 84.8536C170.762 84.8878 170.901 84.8915 171.035 84.8644C171.169 84.8372 171.295 84.78 171.404 84.6969C171.513 84.6139 171.601 84.5072 171.663 84.3849C171.725 84.2627 171.758 84.128 171.76 83.9911V61.5042C171.761 61.4922 171.759 61.4802 171.754 61.4692Z" fill="#3F3D56"/>
<path d="M139.026 55.6254C138.372 55.305 137.623 55.2391 136.923 55.4406C136.614 55.5565 136.332 55.7327 136.091 55.959C135.851 56.1852 135.658 56.457 135.523 56.7585C135.281 57.3367 135.125 57.9477 135.062 58.5715C135.025 58.8168 135.023 59.1264 135.269 59.241C135.359 59.2735 135.455 59.2809 135.549 59.2624C135.642 59.2439 135.729 59.2002 135.799 59.136C135.926 59.0105 136.031 58.864 136.109 58.7031C136.537 58.0368 137.126 57.4892 137.821 57.1109C138.516 56.7326 139.296 56.5358 140.087 56.5386L140.746 56.8013C140.228 56.3342 139.649 55.9387 139.026 55.6254Z" fill="#FF6582"/>
<path d="M146.156 60.7439C145.645 59.9907 145.039 59.1866 144.09 58.9407C142.992 58.6559 141.863 59.2216 140.906 59.7799C138.059 61.439 135.302 63.2482 132.647 65.1999L132.65 65.2291L138.813 64.8506C140.297 64.7594 141.832 64.6557 143.144 64.0303C143.615 63.7348 144.141 63.5387 144.69 63.4539C145.031 63.4724 145.365 63.5582 145.673 63.7065C145.98 63.8548 146.255 64.0625 146.482 64.3178C149.322 67.0117 150.144 71.1313 153.33 73.4981C151.303 69.0517 148.903 64.7851 146.156 60.7439Z" fill="white"/>
<path d="M138.418 81.1759C138.275 81.1818 138.138 81.1878 138.001 81.1937C137.008 80.8366 135.991 80.5211 134.962 80.2473C134.296 80.0688 133.618 79.9081 132.94 79.7712C132.173 79.6046 131.399 79.4736 130.626 79.3604C129.154 79.1462 127.67 79.021 126.183 78.9855C126.172 78.9867 126.161 78.9856 126.15 78.9821C126.139 78.9786 126.129 78.9729 126.121 78.9653C126.112 78.9577 126.105 78.9485 126.101 78.9381C126.096 78.9277 126.094 78.9165 126.094 78.9052C126.094 78.8938 126.096 78.8826 126.101 78.8722C126.105 78.8619 126.112 78.8526 126.121 78.845C126.129 78.8374 126.139 78.8317 126.15 78.8282C126.161 78.8248 126.172 78.8236 126.183 78.8248C126.373 78.8248 126.564 78.8308 126.748 78.8427C128.239 78.8978 129.724 79.0429 131.197 79.2772C131.964 79.4022 132.732 79.551 133.493 79.7177C134.183 79.8724 134.873 80.045 135.551 80.2355C136.52 80.5092 137.476 80.8227 138.418 81.1759Z" fill="white"/>
<path d="M155.571 81.914C155.47 81.8961 155.369 81.8842 155.262 81.8723C154.851 81.5331 154.435 81.2117 154.001 80.8962C153.46 80.5033 152.901 80.1343 152.33 79.7891C151.065 79.0209 149.745 78.3484 148.38 77.7773C146.223 76.8781 143.989 76.173 141.707 75.6702C139.103 75.0994 136.467 74.6859 133.814 74.4322C131.161 74.1583 128.497 73.9917 125.832 73.825C125.719 73.8191 125.713 73.6525 125.832 73.6584C126.165 73.6822 126.498 73.7 126.837 73.7238C129.532 73.8905 132.226 74.081 134.902 74.3846C137.556 74.6692 140.189 75.1265 142.783 75.7535C144.998 76.2997 147.16 77.0427 149.243 77.9737C150.441 78.5123 151.601 79.1307 152.716 79.8248C153.424 80.2712 154.108 80.7474 154.762 81.2533C155.036 81.4675 155.309 81.6819 155.571 81.914Z" fill="white"/>
<path d="M154.453 81.777C154.344 81.7595 154.235 81.7476 154.126 81.7412C154.001 81.6401 153.87 81.5448 153.739 81.4496C152.823 80.7937 151.868 80.1954 150.878 79.658C149.979 79.1691 149.056 78.7261 148.112 78.3307C145.956 77.4289 143.722 76.7237 141.439 76.2237C138.835 75.6528 136.199 75.2394 133.546 74.9856C130.893 74.7118 128.229 74.5452 125.564 74.3785C125.451 74.3666 125.451 74.2059 125.564 74.2118C125.903 74.2357 126.236 74.2535 126.569 74.2773C129.264 74.4439 131.958 74.6344 134.635 74.938C137.288 75.2226 139.921 75.6799 142.515 76.307C144.731 76.8522 146.892 77.5952 148.975 78.5271C149.76 78.8843 150.527 79.2712 151.277 79.6937C152.388 80.3044 153.45 81.0009 154.453 81.777Z" fill="white"/>
<path d="M163.458 83.2115C163.363 83.1937 163.267 83.1699 163.172 83.152C163.065 83.0389 162.964 82.9199 162.863 82.8008C162.352 82.2116 161.846 81.6163 161.346 81.0152C159.378 78.6701 157.51 76.2534 155.749 73.7893C154.239 71.6822 152.805 69.5335 151.449 67.3431C150.801 66.3074 150.176 65.2599 149.564 64.2004C149.088 63.379 148.624 62.5557 148.172 61.7303C148.041 61.4922 147.916 61.2541 147.791 61.016C147.5 60.4564 147.208 59.891 146.899 59.3375C146.563 58.6593 146.069 58.0715 145.46 57.6233C145.155 57.4191 144.802 57.2981 144.437 57.2721C143.921 57.274 143.414 57.405 142.962 57.653C139.634 59.2038 136.495 61.1309 133.606 63.3968C130.784 65.5932 128.232 68.1167 126.005 70.9144C125.933 70.9977 125.778 70.9203 125.844 70.831C126.112 70.4978 126.385 70.1644 126.659 69.837C128.8 67.3024 131.211 65.0092 133.85 62.998C133.856 62.9921 133.867 62.9861 133.873 62.9802C134.105 62.7957 134.337 62.6172 134.575 62.4445C136.048 61.359 137.581 60.3575 139.167 59.4446C139.976 58.9744 140.803 58.528 141.647 58.1054C141.855 57.9983 142.07 57.8911 142.284 57.7899C142.498 57.6828 142.712 57.5817 142.926 57.4804C143.35 57.2641 143.813 57.1365 144.288 57.1055C145.942 57.0817 146.792 58.7483 147.381 59.8732C147.565 60.2244 147.756 60.5756 147.94 60.9267C148.654 62.254 149.397 63.5755 150.17 64.8789C150.64 65.6884 151.128 66.492 151.622 67.2896C152.329 68.4265 153.055 69.5514 153.81 70.6704C153.81 70.6712 153.811 70.672 153.811 70.6727C153.811 70.6734 153.812 70.6741 153.812 70.6746C153.813 70.6752 153.813 70.6756 153.814 70.6759C153.815 70.6762 153.815 70.6764 153.816 70.6764C154.69 71.9978 155.601 73.2953 156.541 74.5869C158.152 76.7952 159.842 78.9538 161.608 81.0629C162.215 81.789 162.831 82.5052 163.458 83.2115Z" fill="white"/>
<path d="M142.237 56.9239L142.073 56.9959C141.696 56.3591 141.168 55.8253 140.535 55.442C139.902 55.0587 139.185 54.8377 138.446 54.7988C136.011 54.6256 133.872 56.2496 133.678 58.4186C133.599 59.3117 133.857 60.202 134.402 60.9139L134.249 61.0042C133.682 60.2629 133.413 59.3357 133.495 58.4056C133.697 56.1469 135.925 54.4557 138.461 54.636C139.23 54.6765 139.977 54.9066 140.636 55.3058C141.295 55.7049 141.845 56.2608 142.237 56.9239Z" fill="#FF6582"/>
<path d="M130.205 61.3123C129.566 61.0342 128.87 60.9122 128.174 60.9565C127.479 61.0008 126.804 61.2101 126.205 61.5671C128.391 61.9027 130.557 62.3531 132.695 62.9165C131.81 62.4543 131.118 61.7302 130.205 61.3123Z" fill="white"/>
<path d="M126.193 61.5651L125.952 61.7393C126.034 61.6783 126.118 61.6211 126.205 61.567L126.193 61.5651Z" fill="white"/>
<path d="M133.441 62.5757C133.345 62.4804 133.249 62.3852 133.153 62.2899C132.412 61.4837 131.521 60.8308 130.529 60.3685C130.024 60.1557 129.482 60.0438 128.934 60.0392C128.368 60.0524 127.808 60.1612 127.278 60.3609C127.029 60.4496 126.785 60.5503 126.545 60.6576C126.27 60.7806 126.001 60.9117 125.733 61.044C125.229 61.2922 124.732 61.5513 124.242 61.8213C123.266 62.3585 122.32 62.9368 121.406 63.556C120.932 63.8772 120.467 64.2088 120.012 64.551C119.59 64.8689 119.175 65.1953 118.77 65.5302C118.683 65.6015 118.553 65.4862 118.64 65.4148C118.747 65.3261 118.855 65.2379 118.963 65.1509C119.269 64.9048 119.579 64.6635 119.895 64.4269C120.47 63.9947 121.059 63.5792 121.664 63.1805C122.605 62.5599 123.577 61.9815 124.583 61.4452C125.085 61.1774 125.594 60.9208 126.11 60.6755C126.266 60.6015 126.424 60.5291 126.583 60.4605C126.947 60.2971 127.323 60.1608 127.708 60.0528C128.259 59.8947 128.835 59.8443 129.406 59.9042C129.952 59.974 130.482 60.1373 130.973 60.387C131.945 60.9324 132.822 61.6325 133.57 62.4598C133.648 62.5381 133.519 62.6541 133.441 62.5757Z" fill="white"/>
<path d="M44.5663 40.338C57.9731 36.0574 72.9302 37.1907 85.6313 43.2211C89.2552 44.9328 92.6778 47.0424 95.836 49.5109C96.7294 50.2126 98.0007 48.9575 97.0977 48.2483C85.432 39.1934 70.7742 34.8919 56.0694 36.208C52.0013 36.5723 47.985 37.3798 44.0919 38.6161C43.002 38.9641 43.4679 40.6887 44.5663 40.338Z" fill="#3F3D56"/>
<path d="M44.5663 52.2422C57.9731 47.9616 72.9302 49.0949 85.6313 55.1253C89.2552 56.837 92.6778 58.9465 95.836 61.4151C96.7294 62.1167 98.0007 60.8616 97.0977 60.1524C85.432 51.0975 70.7742 46.796 56.0694 48.1122C52.0013 48.4765 47.985 49.284 44.0919 50.5203C43.002 50.8682 43.4679 52.5929 44.5663 52.2422Z" fill="#3F3D56"/>
<path d="M44.5663 64.1465C57.9731 59.8659 72.9302 60.9992 85.6313 67.0296C89.2552 68.7413 92.6778 70.8508 95.836 73.3194C96.7294 74.021 98.0007 72.7659 97.0977 72.0567C85.432 63.0018 70.7742 58.7003 56.0694 60.0165C52.0013 60.3808 47.985 61.1883 44.0919 62.4246C43.002 62.7725 43.4679 64.4972 44.5663 64.1465Z" fill="#3F3D56"/>
<path d="M44.5663 76.0508C57.9731 71.7702 72.9302 72.9035 85.6313 78.9339C89.2552 80.6456 92.6778 82.7551 95.836 85.2237C96.7294 85.9253 98.0007 84.6702 97.0977 83.961C85.432 74.9061 70.7742 70.6046 56.0694 71.9208C52.0013 72.2851 47.985 73.0926 44.0919 74.3289C43.002 74.6768 43.4679 76.4015 44.5663 76.0508Z" fill="#3F3D56"/>
<path d="M44.5663 87.955C57.9731 83.6745 72.9302 84.8077 85.6313 90.8381C89.2553 92.5499 92.6778 94.6594 95.836 97.128C96.7294 97.8296 98.0007 96.5745 97.0977 95.8653C85.432 86.8104 70.7742 82.5089 56.0694 83.8251C52.0013 84.1894 47.985 84.9969 44.0919 86.2332C43.002 86.5811 43.4679 88.3057 44.5663 87.955Z" fill="#3F3D56"/>
<path d="M92.8699 14.0997V42.6457C92.8699 43.2131 91.8789 43.6879 90.5435 43.8182C90.5322 43.8175 90.5208 43.8189 90.5099 43.8224C90.2874 43.8392 90.0522 43.8518 89.8129 43.8518C89.0767 43.8653 88.3441 43.7457 87.6503 43.4988C87.5873 43.4736 87.5243 43.4442 87.4613 43.419C87.4025 43.3853 87.3395 43.3559 87.2808 43.3223C86.949 43.1248 86.7559 42.8937 86.7559 42.6457V11.6372C88.8577 12.2895 90.9026 13.1131 92.8699 14.0997Z" fill="white"/>
<path d="M105.685 20.7206H104.812V122.514H105.685V20.7206Z" fill="#E6E6E6"/>
<path d="M200.68 90.4053C201.3 90.3486 201.899 90.1567 202.437 89.843C202.974 89.5294 203.436 89.1017 203.79 88.59C204.144 88.0784 204.382 87.4952 204.487 86.8816C204.592 86.268 204.561 85.6389 204.396 85.0386L222.527 76.5688L233.443 58.8986L224.863 55.432L217.499 69.6711L198.861 82.1002C197.872 82.4437 197.043 83.1385 196.531 84.0528C196.019 84.9672 195.86 86.0377 196.085 87.0614C196.309 88.0851 196.901 88.9909 197.748 89.6072C198.595 90.2235 199.638 90.5075 200.68 90.4053Z" fill="#FFB6B6"/>
<path d="M240.176 41.9711C240.176 41.9711 242.312 42.6691 239.967 46.8168C238.09 50.1374 228.943 69.2644 225.21 73.0199C225.603 73.6497 225.775 74.3925 225.7 75.1311C225.624 75.8697 225.305 76.5622 224.793 77.0994L216.176 70.2557C216.011 67.7666 217.657 67.5197 218.632 67.6036L220.615 60.5718L227.53 43.2253L238.64 41.4391L240.176 41.9711Z" fill="white"/>
<path d="M240.362 9.45854C240.77 7.8099 243.726 6.5926 238.662 4.29089C237.433 3.73229 237.484 1.80857 236.445 0.947066C235.405 0.0855591 233.883 -0.313846 232.675 0.288314C231.596 0.82604 230.988 2.04293 230.858 3.24214C230.796 4.4491 230.935 5.65798 231.27 6.81914L231.172 6.96267C233.178 8.49863 235.184 10.0346 237.189 11.5705C237.926 12.1349 238.89 12.7259 239.716 12.3024C240.651 11.823 240.11 10.4793 240.362 9.45854Z" fill="#2F2E41"/>
<path d="M261.989 185.339L262.47 174.531C267.477 171.852 273.062 170.437 278.739 170.409C270.925 176.802 271.902 189.126 266.604 197.724C264.931 200.393 262.68 202.65 260.016 204.33C257.353 206.01 254.346 207.068 251.218 207.426L244.679 211.433C243.782 206.427 243.98 201.286 245.259 196.364C246.538 191.442 248.869 186.857 252.09 182.923C253.918 180.734 256.015 178.784 258.331 177.119C259.897 181.252 261.989 185.339 261.989 185.339Z" fill="#F2F2F2"/>
<path d="M162.829 214.124C159.498 213.886 158.63 214.544 153.591 214.124H144.353L145.554 191.999L160.098 197.831L232.372 199.607L232.33 199.73C232.297 199.824 229.088 209.217 231.596 212.774L231.7 212.921L231.497 212.923L165.197 213.532C164.473 213.538 163.547 214.175 162.829 214.124Z" fill="#F2F2F2"/>
<path d="M166.577 214.413C160.143 213.955 153.481 216.458 147.921 213.632L143.476 213.901L143.463 213.864C143.429 213.761 141.329 197.229 145.574 190.819L145.761 190.537L145.907 192.055L144.507 212.649L147.609 211.614C155.141 215.161 164.099 212.818 172.72 212.786L231.389 212.569C232.618 212.565 233.641 213.405 233.674 214.442L233.677 214.544L170.121 214.539C168.935 214.539 167.754 214.497 166.577 214.413Z" fill="#CCCCCC"/>
<path d="M228.297 204.069L162.274 202.756L162.206 202.731L146.607 196.88L146.902 196.093L162.434 201.919L228.313 203.228L228.297 204.069Z" fill="#E6E6E6"/>
<path d="M227.944 207.607L161.921 206.294L161.854 206.268L146.255 200.418L146.55 199.631L162.082 205.456L227.961 206.766L227.944 207.607Z" fill="#E6E6E6"/>
<path d="M227.592 211.145L161.57 209.831L161.503 209.806L145.903 203.955L146.198 203.168L161.73 208.994L227.609 210.305L227.592 211.145Z" fill="#E6E6E6"/>
<path d="M167.034 199.835C160.912 199.422 154.944 197.736 149.509 194.887L144.933 192.458L145.052 191.257C145.086 191.081 145.183 190.923 145.325 190.815C145.468 190.706 145.645 190.654 145.824 190.668L146.228 190.673L207.8 191.58C211.83 191.63 215.823 192.355 219.614 193.726L233.029 198.6L233.022 198.671C232.91 199.802 231.77 200.676 230.427 200.66L169.776 199.949C168.859 199.938 167.945 199.9 167.034 199.835Z" fill="#E6E6E6"/>
<path d="M232.9 198.86L232.886 198.859L159.05 197.166L158.999 197.142L145.687 190.973L145.822 190.767L146.226 190.772L159.174 196.775L232.325 198.451L232.911 198.465L232.9 198.86Z" fill="#CCCCCC"/>
<path d="M175.499 191.203L174.562 191.19L153.401 190.877L152.398 190.863C157.233 196.014 167.924 197.303 183.594 195.307L175.499 191.203Z" fill="#CCCCCC"/>
<path d="M234.992 67.9986L236.283 71.0036L234.173 81.6753L212.65 78.6808L212.822 65.6676L213.254 62.8176L234.992 67.9986Z" fill="#FFB6B6"/>
<path d="M246.113 206.307H241.365L239.104 187.979H246.113V206.307Z" fill="#FFB6B6"/>
<path d="M231.988 212.511C231.989 213.049 232.203 213.565 232.583 213.946C232.963 214.326 233.479 214.54 234.017 214.541H243.051L244.608 211.324L245.213 214.541H248.618L247.661 203.051L246.113 202.96L240.913 202.651L240.074 202.598V205.853L232.865 210.838C232.594 211.025 232.373 211.275 232.221 211.566C232.068 211.858 231.988 212.182 231.988 212.511Z" fill="#2F2E41"/>
<path d="M202.223 185.296H197.475L194.682 158.312L203.604 157.779L202.223 185.296Z" fill="#FFB6B6"/>
<path d="M188.099 191.499C188.099 192.038 188.313 192.554 188.693 192.934C189.074 193.315 189.589 193.529 190.127 193.53H199.161L200.718 190.313L201.323 193.53H204.728L203.771 182.04L202.39 181.959L197.099 181.639L196.185 181.587V184.842L188.975 189.827C188.704 190.014 188.483 190.264 188.331 190.555C188.178 190.846 188.099 191.17 188.099 191.499Z" fill="#2F2E41"/>
<path d="M248.129 190.502H248.11L247.197 160.7C247.788 159.559 248.088 158.29 248.07 157.005C248.052 155.72 247.717 154.46 247.095 153.336L246.964 153.099L247.303 151.526C247.738 149.506 247.539 147.4 246.731 145.498L245.879 117.698C248.923 97.9585 234.418 85.085 234.418 85.085L235.751 74.7388L212.29 75.2724L212.689 85.085L208.024 101.124C205.569 125.06 189.046 140.105 191.557 162.995C191.562 163.061 191.553 163.127 191.529 163.188C191.274 163.963 191.184 164.784 191.265 165.596C191.347 166.408 191.597 167.194 192 167.904C192.105 168.085 192.177 168.283 192.213 168.489C192.73 172.502 192.797 167.426 193.483 171.403L193.35 171.47C192.869 171.636 192.663 172.302 192.889 172.958C193.116 173.614 193.688 174.011 194.169 173.845L206.71 173.979C207.191 173.813 207.397 173.147 207.171 172.491C206.945 171.836 206.372 171.439 205.891 171.605L205.111 172L206.417 167.726L206.874 167.298C207.093 167.093 207.264 166.841 207.372 166.561C207.48 166.282 207.524 165.981 207.499 165.682C207.475 165.382 207.383 165.093 207.231 164.834C207.079 164.575 206.871 164.354 206.621 164.188L207.922 157.242L207.737 151.99L208.117 146.03L224.574 122.168L231.232 155.129L238.032 190.833C237.874 190.977 237.754 191.158 237.686 191.361C237.618 191.563 237.603 191.78 237.642 191.99C237.705 192.284 237.867 192.546 238.102 192.733C238.337 192.92 238.63 193.019 238.93 193.013H248.162C248.355 193.013 248.546 192.968 248.72 192.882C248.893 192.796 249.044 192.671 249.161 192.517C249.279 192.363 249.359 192.183 249.395 191.993C249.432 191.803 249.424 191.607 249.373 191.42C249.295 191.152 249.131 190.916 248.906 190.75C248.681 190.584 248.408 190.497 248.129 190.502Z" fill="#2F2E41"/>
<path d="M239.918 17.2883C239.919 19.191 239.452 21.0648 238.561 22.7452C237.669 24.4257 236.378 25.8613 234.803 26.9261C233.227 27.9909 231.414 28.6523 229.523 28.8523C227.632 29.0523 225.721 28.7848 223.958 28.0732C222.195 27.3616 220.633 26.2276 219.41 24.771C218.186 23.3143 217.339 21.5794 216.942 19.7185C216.545 17.8577 216.611 15.9278 217.134 14.0984C217.656 12.2689 218.619 10.5957 219.939 9.22573L219.995 9.17C220.088 9.07232 220.181 8.97469 220.278 8.88166L220.28 8.88133L220.281 8.88032L220.282 8.8788L220.283 8.87701C220.416 8.77968 220.539 8.66908 220.65 8.5469C222.218 6.35413 223.996 4.51546 228.302 5.66414C234.502 7.31789 239.918 10.8671 239.918 17.2883Z" fill="#2F2E41"/>
<path d="M176.111 12.312C176.085 12.9339 176.195 13.5541 176.434 14.1287C176.673 14.7034 177.035 15.2186 177.495 15.6381C177.954 16.0576 178.5 16.3711 179.094 16.5566C179.688 16.7422 180.315 16.7952 180.931 16.7119L210.888 41.3147L215.463 33.2665L184.579 11.6134C184.37 10.5864 183.792 9.67154 182.955 9.04225C182.118 8.41296 181.079 8.11294 180.035 8.19905C178.991 8.28517 178.015 8.75142 177.292 9.50947C176.569 10.2675 176.149 11.2647 176.111 12.312Z" fill="#FFB6B6"/>
<path d="M223.537 48.5704C223.537 48.5704 223.527 47.6843 218.765 47.7184C212.854 47.7607 196.574 39.268 197.998 31.2697C197.322 31.5754 196.564 31.6474 195.842 31.4742C195.121 31.301 194.478 30.8926 194.014 30.3132L201.939 22.677C204.426 22.8451 204.451 24.5105 204.238 25.4668L210.608 27.9996L227.197 37.5375L224.268 47.1182L223.537 48.5704Z" fill="white"/>
<path d="M225.44 29.725C230.82 29.725 235.181 25.361 235.181 19.9777C235.181 14.5944 230.82 10.2303 225.44 10.2303C220.061 10.2303 215.7 14.5944 215.7 19.9777C215.7 25.361 220.061 29.725 225.44 29.725Z" fill="#FFB7B7"/>
<path d="M212.053 68.4599C211.515 69.1785 211.241 70.0604 211.275 70.9576C211.31 71.8548 211.652 72.7128 212.244 73.3876C212.249 73.6735 212.292 73.95 212.696 74.9746C212.749 75.0739 212.812 75.1681 212.882 75.2557C212.895 75.2771 212.91 75.2978 212.925 75.3177C213.351 75.8696 213.944 76.269 214.615 76.4567L232.445 81.4368L234.802 82.0944L235.217 82.2088L235.445 78.9872C235.975 78.5475 236.331 77.9323 236.447 77.2531C236.563 76.5739 236.432 75.8755 236.078 75.2843L235.75 74.7411L237.664 69.5894L237.85 69.0795L242.731 55.9311L242.736 55.0542L242.746 54.1488L242.793 47.8295C242.795 45.8379 242.336 43.8728 241.452 42.0885C240.568 40.3042 239.283 38.7491 237.698 37.5453C236.254 36.441 234.589 35.6608 232.816 35.2578L232.778 35.253L230.85 32.6558L223.025 33.4373L222.378 34.7669L221.592 36.3682L215.92 39.747L213.982 44.2553L212.673 47.3053C210.644 48.7636 209.434 50.6365 209.087 52.8668C208.344 57.6039 211.658 62.3457 212.053 62.8889L212.153 68.3266L212.053 68.4599Z" fill="white"/>
<path d="M235.635 22.5331C235.547 22.5192 235.458 22.5006 235.37 22.4866C233.851 22.2169 232.331 21.9519 230.817 21.6776L230.677 18.2415L228.842 21.3195C224.656 22.7098 220.739 21.924 217.054 20.1897C215.839 19.6123 214.66 18.9617 213.523 18.2415C213.149 12.4303 215.497 8.71011 219.865 9.10027C220.025 9.11452 220.139 8.95151 220.279 8.88169L220.281 8.88136L220.282 8.88035L220.283 8.87883L220.284 8.87704C220.52 8.76545 220.762 8.65852 221.004 8.56089C222.895 7.82115 224.958 7.63381 226.951 8.02065C228.945 8.40749 230.788 9.35264 232.266 10.7462C235.24 13.5872 236.578 18.2787 235.635 22.5331Z" fill="#2F2E41"/>
<path d="M235.37 22.4865C235.37 22.4865 232.484 11.7086 220.116 9.22103C220.102 9.21644 220.056 9.19782 219.995 9.16996C219.958 9.14668 219.912 9.12341 219.865 9.1002C220.005 9.02113 220.139 8.95144 220.279 8.88162L220.281 8.88129L220.282 8.88027L220.283 8.87875L220.283 8.87697C220.404 8.76538 220.525 8.65379 220.65 8.54686L221.004 8.56082C221.004 8.56082 233.414 6.59402 235.37 22.4865Z" fill="#FD6584"/>
<path d="M240.127 90.428C239.898 90.6239 239.62 90.753 239.322 90.8012C239.025 90.8493 238.72 90.8147 238.441 90.7011C237.886 90.4654 237.392 90.1044 237 89.6462C235.398 87.9643 234.253 85.8997 233.675 83.6492L234.209 82.698C233.999 81.525 234.197 80.3154 234.769 79.2701C235.34 78.2247 236.252 77.4065 237.353 76.9512C237.979 76.6855 238.673 76.625 239.335 76.7786C239.664 76.8603 239.964 77.0293 240.205 77.2677C240.446 77.5061 240.617 77.8051 240.702 78.1331C240.908 79.1507 240.061 80.0695 239.203 80.6537C237.709 81.6686 235.981 82.2872 234.182 82.4513C236.383 83.6923 238.284 85.4004 239.754 87.4555C240.094 87.8842 240.345 88.3766 240.492 88.9037C240.562 89.1681 240.566 89.4458 240.502 89.7119C240.439 89.978 240.31 90.2241 240.127 90.428Z" fill="#2F2E41"/>
<path d="M117.009 214.887H280.476C280.615 214.887 280.748 214.832 280.846 214.733C280.944 214.635 281 214.502 281 214.363C281 214.224 280.944 214.09 280.846 213.992C280.748 213.894 280.615 213.839 280.476 213.839H117.009C116.87 213.839 116.737 213.894 116.639 213.992C116.541 214.09 116.485 214.224 116.485 214.363C116.485 214.502 116.541 214.635 116.639 214.733C116.737 214.832 116.87 214.887 117.009 214.887Z" fill="#CCCCCC"/>
<path d="M160.423 80.1664V80.4402C159.834 79.7498 159.234 79.0653 158.639 78.3807C158.389 78.0951 158.139 77.8094 157.889 77.5237C156.831 76.3213 155.766 75.1229 154.695 73.9286C153.619 72.7381 152.542 71.5477 151.454 70.3632C151.192 70.0775 150.93 69.7918 150.663 69.5062C150.449 69.2661 150.216 69.0431 149.967 68.8394C149.716 68.6303 149.427 68.4707 149.116 68.3692C148.759 68.2701 148.382 68.266 148.022 68.3574C147.612 68.4526 147.219 68.6014 146.821 68.7264C146.41 68.8633 146.006 68.9942 145.595 69.1252C144.774 69.393 143.96 69.6609 143.139 69.9288C143.129 69.9328 143.118 69.9348 143.108 69.9347C143.097 69.9347 143.086 69.9325 143.077 69.9283C143.067 69.9242 143.058 69.9181 143.05 69.9105C143.043 69.9029 143.037 69.8939 143.033 69.884L143.032 69.8811C143.027 69.8698 143.025 69.8576 143.025 69.8455C143.026 69.8333 143.029 69.8214 143.035 69.8106C143.041 69.7998 143.049 69.7904 143.058 69.783C143.068 69.7757 143.079 69.7705 143.091 69.768C143.294 69.7026 143.502 69.6371 143.71 69.5716C144.537 69.2978 145.357 69.03 146.184 68.7622C146.594 68.6252 147.005 68.4943 147.415 68.3633C147.796 68.2187 148.198 68.1382 148.605 68.1252C149.269 68.173 149.892 68.4657 150.354 68.9466C150.609 69.1847 150.841 69.4347 151.073 69.6907C151.347 69.9883 151.62 70.2859 151.894 70.5835C152.994 71.7858 154.087 72.9921 155.171 74.2024C156.26 75.4166 157.338 76.6329 158.407 77.851C158.484 77.9404 158.561 78.0296 158.639 78.1189C159.24 78.7974 159.828 79.4819 160.423 80.1664Z" fill="white"/>
<path d="M149.874 69.9361C149.65 69.6464 149.35 69.4237 149.008 69.292L148.67 69.3039C151.325 73.4377 154.802 76.9794 158.886 79.7076C155.882 76.4505 152.878 73.1933 149.874 69.9361Z" fill="white"/>
<path d="M205.274 112.896L191.8 40.6969C191.57 39.5067 190.942 38.4302 190.02 37.644C189.098 36.8577 187.936 36.4082 186.725 36.3694C186.616 36.3669 186.507 36.3669 186.398 36.3694L177.219 36.6989L176.231 36.7352L171.65 36.9L170.663 36.9339L167.716 37.0405L108.298 39.1752C108.209 39.1801 108.117 39.1801 108.027 39.1776L94.7124 38.899L89.7851 38.7972L89.6278 38.7948L85.991 38.7173L54.3016 38.0582L45.8998 37.8813L41.757 37.7965L40.7643 37.7747L36.0404 37.6778L35.0501 37.656L30.2173 37.5566L29.227 37.5348L23.9172 37.4233L23.0842 37.4064L18.3483 37.307L17.6001 37.2925H17.4912C16.2338 37.2976 15.0188 37.7474 14.0609 38.5624C13.103 39.3774 12.4638 40.505 12.2564 41.746L0.0701719 116.666C-0.0535782 117.425 -0.0109726 118.202 0.195028 118.943C0.401028 119.683 0.765491 120.371 1.26319 120.957C1.76089 121.542 2.37992 122.013 3.07739 122.336C3.77486 122.658 4.5341 122.826 5.30251 122.825H75.2866C76.3167 122.828 77.3191 123.159 78.1486 123.77L79.4754 124.754C80.3899 125.428 81.4948 125.793 82.6303 125.796C96.1468 122.226 110.358 122.226 123.874 125.796C124.571 125.798 125.261 125.661 125.905 125.394C126.549 125.127 127.133 124.735 127.625 124.24C128.465 123.4 129.586 122.9 130.772 122.838L200.34 119.169C201.094 119.13 201.832 118.929 202.502 118.582C203.173 118.234 203.762 117.747 204.229 117.153C204.696 116.559 205.031 115.871 205.212 115.137C205.392 114.403 205.413 113.639 205.274 112.896Z" fill="#CCCCCC"/>
<path d="M186.21 101.637C186.121 104.084 185.064 106.395 183.273 108.062C181.481 109.73 179.102 110.617 176.657 110.529C172.617 110.386 167.797 110.315 162.564 110.424C145.478 110.79 124.011 113.143 111.099 121.606C109.476 122.673 107.558 123.199 105.619 123.111C105.476 123.102 105.338 123.094 105.195 123.081C103.184 122.898 101.29 122.057 99.8031 120.69C92.6897 114.177 76.3758 106.289 39.0323 105.734C38.8769 105.734 38.7257 105.726 38.5746 105.718C37.365 105.642 36.1824 105.328 35.0942 104.794C34.006 104.26 33.0336 103.517 32.2326 102.607C31.4315 101.697 30.8176 100.637 30.4258 99.4897C30.0341 98.342 29.8722 97.1283 29.9494 95.918L33.6195 37.6283L34.1696 28.8918L35.1354 13.6082C35.2328 12.069 35.9121 10.6246 37.0352 9.56858C38.1584 8.51252 39.6411 7.92396 41.1823 7.92249H41.2201L63.4674 8.05275C72.84 8.47718 80.603 9.67203 86.7562 11.6373C88.858 12.2895 90.9029 13.1132 92.8702 14.0998C95.5573 15.4035 97.9715 17.2076 99.9837 19.4157C101.237 20.8263 102.947 21.7501 104.813 22.0253C105.102 22.0686 105.394 22.0952 105.686 22.1052C107.407 22.1764 109.105 21.6901 110.528 20.7184C125.061 10.9733 154.678 10.2338 171.034 10.654C173.322 10.7074 175.507 11.6109 177.165 13.1887C178.823 14.7664 179.835 16.9053 180.004 19.1888L180.667 27.8833L181.326 36.5526L185.131 86.6562L186.189 100.595C186.215 100.942 186.222 101.29 186.21 101.637Z" fill="#F2F2F2"/>
<path d="M44.5663 28.4337C57.9731 24.1531 72.9302 25.2864 85.6313 31.3168C89.2552 33.0285 92.6778 35.1381 95.836 37.6066C96.7294 38.3083 98.0007 37.0532 97.0977 36.344C85.432 27.2891 70.7742 22.9876 56.0694 24.3037C52.0013 24.668 47.985 25.4755 44.0919 26.7118C43.002 27.0598 43.4679 28.7844 44.5663 28.4337Z" fill="#3F3D56"/>
<path d="M118.34 38.2993C130.805 31.7428 145.731 30.3131 159.284 34.0348C163.148 35.0933 166.882 36.579 170.417 38.4645C171.43 39.0053 172.332 37.4644 171.318 36.9226C158.401 30.0253 142.896 28.4376 128.79 32.2824C124.856 33.3569 121.05 34.8574 117.44 36.7574C116.423 37.2923 117.324 38.834 118.34 38.2993Z" fill="#3F3D56"/>
<path d="M118.34 50.2036C130.805 43.6471 145.731 42.2173 159.284 45.9391C163.148 46.9976 166.882 48.4833 170.417 50.3688C171.43 50.9096 172.332 49.3687 171.318 48.8269C158.401 41.9296 142.896 40.3419 128.791 44.1867C124.856 45.2612 121.05 46.7617 117.44 48.6617C116.423 49.1966 117.324 50.7383 118.34 50.2036Z" fill="#3F3D56"/>
<path d="M171.754 61.4692C171.763 61.316 171.726 61.1634 171.648 61.0314C171.569 60.8994 171.453 60.7941 171.314 60.7291C160.967 55.3069 149.234 53.1077 137.627 54.4146C137.555 54.4204 137.488 54.4321 137.409 54.4379H137.406C137.335 54.4443 137.264 54.455 137.193 54.4699C130.29 55.2649 123.593 57.3307 117.44 60.563C117.306 60.643 117.194 60.7565 117.117 60.8924C117.04 61.0283 117 61.1819 117 61.3381V83.5453C117.002 83.682 117.035 83.8163 117.097 83.9382C117.159 84.0601 117.248 84.1664 117.356 84.2489C117.465 84.3314 117.592 84.3881 117.726 84.4146C117.859 84.4412 117.998 84.4369 118.13 84.402C118.403 84.3233 118.677 84.2476 118.957 84.1747C125.177 82.4898 131.563 81.4902 138 81.1937C138.137 81.1879 138.274 81.1821 138.416 81.1763C143.66 80.9509 148.912 81.1399 154.126 81.7415C154.235 81.7477 154.344 81.7594 154.452 81.7765C154.72 81.8056 154.993 81.8377 155.261 81.8727C155.369 81.8843 155.471 81.896 155.57 81.9134C156.612 82.0446 157.646 82.1932 158.683 82.3535C160.179 82.5924 161.676 82.8585 163.173 83.1519C163.266 83.1694 163.362 83.1927 163.458 83.2102C165.86 83.6881 168.251 84.2417 170.63 84.8536C170.762 84.8878 170.901 84.8915 171.035 84.8644C171.169 84.8372 171.295 84.78 171.404 84.6969C171.513 84.6139 171.601 84.5072 171.663 84.3849C171.725 84.2627 171.758 84.128 171.76 83.9911V61.5042C171.761 61.4922 171.759 61.4802 171.754 61.4692Z" fill="#3F3D56"/>
<path d="M139.026 55.6254C138.372 55.305 137.623 55.2391 136.923 55.4406C136.614 55.5565 136.332 55.7327 136.091 55.959C135.851 56.1852 135.658 56.457 135.523 56.7585C135.281 57.3367 135.125 57.9477 135.062 58.5715C135.025 58.8168 135.023 59.1264 135.269 59.241C135.359 59.2735 135.455 59.2809 135.549 59.2624C135.642 59.2439 135.729 59.2002 135.799 59.136C135.926 59.0105 136.031 58.864 136.109 58.7031C136.537 58.0368 137.126 57.4892 137.821 57.1109C138.516 56.7326 139.296 56.5358 140.087 56.5386L140.746 56.8013C140.228 56.3342 139.649 55.9387 139.026 55.6254Z" fill="#FF6582"/>
<path d="M146.156 60.7439C145.645 59.9907 145.039 59.1866 144.09 58.9407C142.992 58.6559 141.863 59.2216 140.906 59.7799C138.059 61.439 135.302 63.2482 132.647 65.1999L132.65 65.2291L138.813 64.8506C140.297 64.7594 141.832 64.6557 143.144 64.0303C143.615 63.7348 144.141 63.5387 144.69 63.4539C145.031 63.4724 145.365 63.5582 145.673 63.7065C145.98 63.8548 146.255 64.0625 146.482 64.3178C149.322 67.0117 150.144 71.1313 153.33 73.4981C151.303 69.0517 148.903 64.7851 146.156 60.7439Z" fill="white"/>
<path d="M138.418 81.1759C138.275 81.1818 138.138 81.1878 138.001 81.1937C137.008 80.8366 135.991 80.5211 134.962 80.2473C134.296 80.0688 133.618 79.9081 132.94 79.7712C132.173 79.6046 131.399 79.4736 130.626 79.3604C129.154 79.1462 127.67 79.021 126.183 78.9855C126.172 78.9867 126.161 78.9856 126.15 78.9821C126.139 78.9786 126.129 78.9729 126.121 78.9653C126.112 78.9577 126.105 78.9485 126.101 78.9381C126.096 78.9277 126.094 78.9165 126.094 78.9052C126.094 78.8938 126.096 78.8826 126.101 78.8722C126.105 78.8619 126.112 78.8526 126.121 78.845C126.129 78.8374 126.139 78.8317 126.15 78.8282C126.161 78.8248 126.172 78.8236 126.183 78.8248C126.373 78.8248 126.564 78.8308 126.748 78.8427C128.239 78.8978 129.724 79.0429 131.197 79.2772C131.964 79.4022 132.732 79.551 133.493 79.7177C134.183 79.8724 134.873 80.045 135.551 80.2355C136.52 80.5092 137.476 80.8227 138.418 81.1759Z" fill="white"/>
<path d="M155.571 81.914C155.47 81.8961 155.369 81.8842 155.262 81.8723C154.851 81.5331 154.435 81.2117 154.001 80.8962C153.46 80.5033 152.901 80.1343 152.33 79.7891C151.065 79.0209 149.745 78.3484 148.38 77.7773C146.223 76.8781 143.989 76.173 141.707 75.6702C139.103 75.0994 136.467 74.6859 133.814 74.4322C131.161 74.1583 128.497 73.9917 125.832 73.825C125.719 73.8191 125.713 73.6525 125.832 73.6584C126.165 73.6822 126.498 73.7 126.837 73.7238C129.532 73.8905 132.226 74.081 134.902 74.3846C137.556 74.6692 140.189 75.1265 142.783 75.7535C144.998 76.2997 147.16 77.0427 149.243 77.9737C150.441 78.5123 151.601 79.1307 152.716 79.8248C153.424 80.2712 154.108 80.7474 154.762 81.2533C155.036 81.4675 155.309 81.6819 155.571 81.914Z" fill="white"/>
<path d="M154.453 81.777C154.344 81.7595 154.235 81.7476 154.126 81.7412C154.001 81.6401 153.87 81.5448 153.739 81.4496C152.823 80.7937 151.868 80.1954 150.878 79.658C149.979 79.1691 149.056 78.7261 148.112 78.3307C145.956 77.4289 143.722 76.7237 141.439 76.2237C138.835 75.6528 136.199 75.2394 133.546 74.9856C130.893 74.7118 128.229 74.5452 125.564 74.3785C125.451 74.3666 125.451 74.2059 125.564 74.2118C125.903 74.2357 126.236 74.2535 126.569 74.2773C129.264 74.4439 131.958 74.6344 134.635 74.938C137.288 75.2226 139.921 75.6799 142.515 76.307C144.731 76.8522 146.892 77.5952 148.975 78.5271C149.76 78.8843 150.527 79.2712 151.277 79.6937C152.388 80.3044 153.45 81.0009 154.453 81.777Z" fill="white"/>
<path d="M163.458 83.2115C163.363 83.1937 163.267 83.1699 163.172 83.152C163.065 83.0389 162.964 82.9199 162.863 82.8008C162.352 82.2116 161.846 81.6163 161.346 81.0152C159.378 78.6701 157.51 76.2534 155.749 73.7893C154.239 71.6822 152.805 69.5335 151.449 67.3431C150.801 66.3074 150.176 65.2599 149.564 64.2004C149.088 63.379 148.624 62.5557 148.172 61.7303C148.041 61.4922 147.916 61.2541 147.791 61.016C147.5 60.4564 147.208 59.891 146.899 59.3375C146.563 58.6593 146.069 58.0715 145.46 57.6233C145.155 57.4191 144.802 57.2981 144.437 57.2721C143.921 57.274 143.414 57.405 142.962 57.653C139.634 59.2038 136.495 61.1309 133.606 63.3968C130.784 65.5932 128.232 68.1167 126.005 70.9144C125.933 70.9977 125.778 70.9203 125.844 70.831C126.112 70.4978 126.385 70.1644 126.659 69.837C128.8 67.3024 131.211 65.0092 133.85 62.998C133.856 62.9921 133.867 62.9861 133.873 62.9802C134.105 62.7957 134.337 62.6172 134.575 62.4445C136.048 61.359 137.581 60.3575 139.167 59.4446C139.976 58.9744 140.803 58.528 141.647 58.1054C141.855 57.9983 142.07 57.8911 142.284 57.7899C142.498 57.6828 142.712 57.5817 142.926 57.4804C143.35 57.2641 143.813 57.1365 144.288 57.1055C145.942 57.0817 146.792 58.7483 147.381 59.8732C147.565 60.2244 147.756 60.5756 147.94 60.9267C148.654 62.254 149.397 63.5755 150.17 64.8789C150.64 65.6884 151.128 66.492 151.622 67.2896C152.329 68.4265 153.055 69.5514 153.81 70.6704C153.81 70.6712 153.811 70.672 153.811 70.6727C153.811 70.6734 153.812 70.6741 153.812 70.6746C153.813 70.6752 153.813 70.6756 153.814 70.6759C153.815 70.6762 153.815 70.6764 153.816 70.6764C154.69 71.9978 155.601 73.2953 156.541 74.5869C158.152 76.7952 159.842 78.9538 161.608 81.0629C162.215 81.789 162.831 82.5052 163.458 83.2115Z" fill="white"/>
<path d="M142.237 56.9239L142.073 56.9959C141.696 56.3591 141.168 55.8253 140.535 55.442C139.902 55.0587 139.185 54.8377 138.446 54.7988C136.011 54.6256 133.872 56.2496 133.678 58.4186C133.599 59.3117 133.857 60.202 134.402 60.9139L134.249 61.0042C133.682 60.2629 133.413 59.3357 133.495 58.4056C133.697 56.1469 135.925 54.4557 138.461 54.636C139.23 54.6765 139.977 54.9066 140.636 55.3058C141.295 55.7049 141.845 56.2608 142.237 56.9239Z" fill="#FF6582"/>
<path d="M130.205 61.3123C129.566 61.0342 128.87 60.9122 128.174 60.9565C127.479 61.0008 126.804 61.2101 126.205 61.5671C128.391 61.9027 130.557 62.3531 132.695 62.9165C131.81 62.4543 131.118 61.7302 130.205 61.3123Z" fill="white"/>
<path d="M126.193 61.5651L125.952 61.7393C126.034 61.6783 126.118 61.6211 126.205 61.567L126.193 61.5651Z" fill="white"/>
<path d="M133.441 62.5757C133.345 62.4804 133.249 62.3852 133.153 62.2899C132.412 61.4837 131.521 60.8308 130.529 60.3685C130.024 60.1557 129.482 60.0438 128.934 60.0392C128.368 60.0524 127.808 60.1612 127.278 60.3609C127.029 60.4496 126.785 60.5503 126.545 60.6576C126.27 60.7806 126.001 60.9117 125.733 61.044C125.229 61.2922 124.732 61.5513 124.242 61.8213C123.266 62.3585 122.32 62.9368 121.406 63.556C120.932 63.8772 120.467 64.2088 120.012 64.551C119.59 64.8689 119.175 65.1953 118.77 65.5302C118.683 65.6015 118.553 65.4862 118.64 65.4148C118.747 65.3261 118.855 65.2379 118.963 65.1509C119.269 64.9048 119.579 64.6635 119.895 64.4269C120.47 63.9947 121.059 63.5792 121.664 63.1805C122.605 62.5599 123.577 61.9815 124.583 61.4452C125.085 61.1774 125.594 60.9208 126.11 60.6755C126.266 60.6015 126.424 60.5291 126.583 60.4605C126.947 60.2971 127.323 60.1608 127.708 60.0528C128.259 59.8947 128.835 59.8443 129.406 59.9042C129.952 59.974 130.482 60.1373 130.973 60.387C131.945 60.9324 132.822 61.6325 133.57 62.4598C133.648 62.5381 133.519 62.6541 133.441 62.5757Z" fill="white"/>
<path d="M44.5663 40.338C57.9731 36.0574 72.9302 37.1907 85.6313 43.2211C89.2552 44.9328 92.6778 47.0424 95.836 49.5109C96.7294 50.2126 98.0007 48.9575 97.0977 48.2483C85.432 39.1934 70.7742 34.8919 56.0694 36.208C52.0013 36.5723 47.985 37.3798 44.0919 38.6161C43.002 38.9641 43.4679 40.6887 44.5663 40.338Z" fill="#3F3D56"/>
<path d="M44.5663 52.2422C57.9731 47.9616 72.9302 49.0949 85.6313 55.1253C89.2552 56.837 92.6778 58.9465 95.836 61.4151C96.7294 62.1167 98.0007 60.8616 97.0977 60.1524C85.432 51.0975 70.7742 46.796 56.0694 48.1122C52.0013 48.4765 47.985 49.284 44.0919 50.5203C43.002 50.8682 43.4679 52.5929 44.5663 52.2422Z" fill="#3F3D56"/>
<path d="M44.5663 64.1465C57.9731 59.8659 72.9302 60.9992 85.6313 67.0296C89.2552 68.7413 92.6778 70.8508 95.836 73.3194C96.7294 74.021 98.0007 72.7659 97.0977 72.0567C85.432 63.0018 70.7742 58.7003 56.0694 60.0165C52.0013 60.3808 47.985 61.1883 44.0919 62.4246C43.002 62.7725 43.4679 64.4972 44.5663 64.1465Z" fill="#3F3D56"/>
<path d="M44.5663 76.0508C57.9731 71.7702 72.9302 72.9035 85.6313 78.9339C89.2552 80.6456 92.6778 82.7551 95.836 85.2237C96.7294 85.9253 98.0007 84.6702 97.0977 83.961C85.432 74.9061 70.7742 70.6046 56.0694 71.9208C52.0013 72.2851 47.985 73.0926 44.0919 74.3289C43.002 74.6768 43.4679 76.4015 44.5663 76.0508Z" fill="#3F3D56"/>
<path d="M44.5663 87.955C57.9731 83.6745 72.9302 84.8077 85.6313 90.8381C89.2553 92.5499 92.6778 94.6594 95.836 97.128C96.7294 97.8296 98.0007 96.5745 97.0977 95.8653C85.432 86.8104 70.7742 82.5089 56.0694 83.8251C52.0013 84.1894 47.985 84.9969 44.0919 86.2332C43.002 86.5811 43.4679 88.3057 44.5663 87.955Z" fill="#3F3D56"/>
<path d="M92.8699 14.0997V42.6457C92.8699 43.2131 91.8789 43.6879 90.5435 43.8182C90.5322 43.8175 90.5208 43.8189 90.5099 43.8224C90.2874 43.8392 90.0522 43.8518 89.8129 43.8518C89.0767 43.8653 88.3441 43.7457 87.6503 43.4988C87.5873 43.4736 87.5243 43.4442 87.4613 43.419C87.4025 43.3853 87.3395 43.3559 87.2808 43.3223C86.949 43.1248 86.7559 42.8937 86.7559 42.6457V11.6372C88.8577 12.2895 90.9026 13.1131 92.8699 14.0997Z" fill="white"/>
<path d="M105.685 20.7206H104.812V122.514H105.685V20.7206Z" fill="#E6E6E6"/>
<path d="M200.68 90.4053C201.3 90.3486 201.899 90.1567 202.437 89.843C202.974 89.5294 203.436 89.1017 203.79 88.59C204.144 88.0784 204.382 87.4952 204.487 86.8816C204.592 86.268 204.561 85.6389 204.396 85.0386L222.527 76.5688L233.443 58.8986L224.863 55.432L217.499 69.6711L198.861 82.1002C197.872 82.4437 197.043 83.1385 196.531 84.0528C196.019 84.9672 195.86 86.0377 196.085 87.0614C196.309 88.0851 196.901 88.9909 197.748 89.6072C198.595 90.2235 199.638 90.5075 200.68 90.4053Z" fill="#FFB6B6"/>
<path d="M240.176 41.9711C240.176 41.9711 242.312 42.6691 239.967 46.8168C238.09 50.1374 228.943 69.2644 225.21 73.0199C225.603 73.6497 225.775 74.3925 225.7 75.1311C225.624 75.8697 225.305 76.5622 224.793 77.0994L216.176 70.2557C216.011 67.7666 217.657 67.5197 218.632 67.6036L220.615 60.5718L227.53 43.2253L238.64 41.4391L240.176 41.9711Z" fill="white"/>
<path d="M240.362 9.45854C240.77 7.8099 243.726 6.5926 238.662 4.29089C237.433 3.73229 237.484 1.80857 236.445 0.947066C235.405 0.0855591 233.883 -0.313846 232.675 0.288314C231.596 0.82604 230.988 2.04293 230.858 3.24214C230.796 4.4491 230.935 5.65798 231.27 6.81914L231.172 6.96267C233.178 8.49863 235.184 10.0346 237.189 11.5705C237.926 12.1349 238.89 12.7259 239.716 12.3024C240.651 11.823 240.11 10.4793 240.362 9.45854Z" fill="#2F2E41"/>
</g>
<defs>
<clipPath id="clip0_372_1109">
<rect width="281" height="215" fill="white"/>
</clipPath>
</defs>
</svg>
