<svg width="16" height="17" viewBox="0 0 16 17" fill="none" xmlns="http://www.w3.org/2000/svg">
<g id="pace">
<mask id="mask0_420_621" style="mask-type:alpha" maskUnits="userSpaceOnUse" x="0" y="0" width="16" height="17">
<rect id="Bounding box" y="0.905273" width="16" height="16" fill="#D9D9D9"/>
</mask>
<g mask="url(#mask0_420_621)">
<path id="pace_2" d="M7.99967 15.5719C7.07745 15.5719 6.21079 15.3969 5.39967 15.0469C4.58856 14.6969 3.88301 14.2219 3.28301 13.6219C2.68301 13.0219 2.20801 12.3164 1.85801 11.5053C1.50801 10.6942 1.33301 9.8275 1.33301 8.90528C1.33301 7.98305 1.50801 7.11639 1.85801 6.30528C2.20801 5.49416 2.68301 4.78861 3.28301 4.18861C3.88301 3.58861 4.58856 3.11361 5.39967 2.76361C6.21079 2.41361 7.07745 2.23861 7.99967 2.23861C8.9219 2.23861 9.78856 2.41361 10.5997 2.76361C11.4108 3.11361 12.1163 3.58861 12.7163 4.18861C13.3163 4.78861 13.7913 5.49416 14.1413 6.30528C14.4913 7.11639 14.6663 7.98305 14.6663 8.90528C14.6663 9.20528 14.6497 9.49972 14.6163 9.78861C14.583 10.0775 14.5275 10.3608 14.4497 10.6386C14.2941 10.4608 14.1136 10.3108 13.908 10.1886C13.7025 10.0664 13.4775 9.98305 13.233 9.93861C13.2663 9.77194 13.2913 9.6025 13.308 9.43028C13.3247 9.25805 13.333 9.08305 13.333 8.90528C13.333 7.41639 12.8163 6.15528 11.783 5.12194C10.7497 4.08861 9.48856 3.57194 7.99967 3.57194C6.51079 3.57194 5.24967 4.08861 4.21634 5.12194C3.18301 6.15528 2.66634 7.41639 2.66634 8.90528C2.66634 10.3942 3.18301 11.6553 4.21634 12.6886C5.24967 13.7219 6.51079 14.2386 7.99967 14.2386C8.56634 14.2386 9.10801 14.1553 9.62467 13.9886C10.1413 13.8219 10.6163 13.5886 11.0497 13.2886C11.183 13.4775 11.3469 13.6442 11.5413 13.7886C11.7358 13.9331 11.9441 14.0442 12.1663 14.1219C11.5997 14.5775 10.9636 14.9331 10.258 15.1886C9.55245 15.4442 8.79967 15.5719 7.99967 15.5719ZM12.833 12.9053C12.5997 12.9053 12.4025 12.8247 12.2413 12.6636C12.0802 12.5025 11.9997 12.3053 11.9997 12.0719C11.9997 11.8386 12.0802 11.6414 12.2413 11.4803C12.4025 11.3192 12.5997 11.2386 12.833 11.2386C13.0663 11.2386 13.2636 11.3192 13.4247 11.4803C13.5858 11.6414 13.6663 11.8386 13.6663 12.0719C13.6663 12.3053 13.5858 12.5025 13.4247 12.6636C13.2636 12.8247 13.0663 12.9053 12.833 12.9053ZM10.1997 12.0386L7.33301 9.17194V5.57194H8.66634V8.63861L11.133 11.1053L10.1997 12.0386Z" fill="#797979"/>
</g>
</g>
</svg>
