<svg width="13" height="13" viewBox="0 0 13 13" fill="none" xmlns="http://www.w3.org/2000/svg">
<g id="sell">
<mask id="mask0_420_357" style="mask-type:alpha" maskUnits="userSpaceOnUse" x="0" y="0" width="13" height="13">
<rect id="Bounding box" y="0.178589" width="12.2913" height="12.2913" fill="#D9D9D9"/>
</mask>
<g mask="url(#mask0_420_357)">
<path id="sell_2" d="M7.29808 11.1383C7.10176 11.3346 6.8585 11.4328 6.56828 11.4328C6.27807 11.4328 6.03481 11.3346 5.83849 11.1383L1.3317 6.63151C1.2378 6.53761 1.16312 6.42665 1.10764 6.29862C1.05215 6.17058 1.02441 6.03401 1.02441 5.88891V2.22714C1.02441 1.94546 1.12471 1.70433 1.32529 1.50375C1.52588 1.30316 1.76701 1.20287 2.04869 1.20287H5.71046C5.85556 1.20287 5.99213 1.23061 6.12017 1.28609C6.2482 1.34157 6.35916 1.41626 6.45305 1.51015L10.9598 6.02975C11.1562 6.22607 11.2543 6.4672 11.2543 6.75314C11.2543 7.03908 11.1562 7.28021 10.9598 7.47653L7.29808 11.1383ZM6.56828 10.4213L10.2301 6.75954L5.71046 2.22714H2.04869V5.88891L6.56828 10.4213ZM3.32903 4.27568C3.54242 4.27568 3.7238 4.20099 3.87317 4.05162C4.02254 3.90225 4.09723 3.72087 4.09723 3.50748C4.09723 3.29409 4.02254 3.11271 3.87317 2.96333C3.7238 2.81396 3.54242 2.73927 3.32903 2.73927C3.11564 2.73927 2.93425 2.81396 2.78488 2.96333C2.63551 3.11271 2.56082 3.29409 2.56082 3.50748C2.56082 3.72087 2.63551 3.90225 2.78488 4.05162C2.93425 4.20099 3.11564 4.27568 3.32903 4.27568Z" fill="white"/>
</g>
</g>
</svg>
